# xmcd CD database file generated by OrangeCD 5.2
#
# Track frame offsets:
#	150
#	10425
#	23248
#	36994
#	49006
#	59838
#	72634
#	86566
#	97850
#	111500
#
# Disc length: 1663 seconds
#
# Revision: 0
# Processed by: cddbd v1.5.1PL0 Copyright (c) Steve Scherf et al.
# Submitted via: OrangeCD 5.2
#
DISCID=8d067d0a
DTITLE=Johnny Cash - Rainbow
DYEAR=1985
DGENRE=Country
TTITLE0=I'm Leaving Now
TTITLE1=Here Comes That Rainbow Again
TTITLE2=They're All The Same
TTITLE3=Easy Street
TTITLE4=Have You Ever Seen The Rain
TTITLE5=You Beat All I Ever Saw
TTITLE6=Unwed Fathers
TTITLE7=Love Me Like You Used To
TTITLE8=Casey's Last Ride
TTITLE9=Borderline
EXTD=
EXTT0=
EXTT1=
EXTT2=
EXTT3=
EXTT4=
EXTT5=
EXTT6=
EXTT7=
EXTT8=
EXTT9=
PLAYORDER=
